<svg width="54" height="42" viewBox="0 0 54 42" fill="none" xmlns="http://www.w3.org/2000/svg">
<path d="M50.1615 12.688C49.9439 11.0524 49.9133 8.23532 51.4324 7.28938C51.4596 7.27204 51.4798 7.24699 51.5036 7.22547C52.7456 6.82821 53.6052 6.2707 52.9304 5.52051L34.6087 9.03898e-07L4.9417 4.12464C4.9417 4.12464 1.54446 4.61022 1.84794 9.88826C2.01269 12.7609 2.91366 14.1717 3.7016 14.866L1.26715 15.5997C0.591456 16.3499 1.45084 16.9076 2.69304 17.3042C2.71664 17.3263 2.73655 17.3512 2.76417 17.3686C4.28239 18.3153 4.25317 21.1321 4.03479 22.768C-1.4194 24.3167 0.538467 24.8214 0.538467 24.8214L1.7349 25.1109C0.893333 25.8714 0.05755 27.3135 0.214109 30.0485C0.517753 35.3256 3.30819 35.6898 3.30819 35.6898L22.7221 42L52.0251 34.9023C52.0251 34.9023 53.9836 34.3969 48.528 32.848C48.3087 31.2146 48.2782 28.3982 49.7999 27.449C49.8278 27.4322 49.8482 27.4066 49.8709 27.3854C51.1131 26.9882 51.9718 26.4311 51.2969 25.6809L50.0233 25.2964C50.8727 24.7841 52.1486 23.4454 52.3485 19.9681C52.4865 17.5762 51.8625 16.1753 51.1402 15.3506L53.6577 14.7414C53.6578 14.7424 55.6163 14.2369 50.1615 12.688ZM25.6513 12.6204L30.579 11.6077L47.2317 8.18554L49.7127 7.67524C48.92 9.12618 48.9532 11.1118 49.0844 12.3881C49.1131 12.6768 49.1462 12.9404 49.1783 13.1408L46.4627 13.816L25.4442 19.0448L25.6513 12.6204ZM4.48407 17.756L6.96476 18.2663L22.9574 21.5539L24.3545 21.84L28.5444 22.7012L28.751 29.1257L7.14846 23.7512L5.01878 23.2219C5.05009 23.0212 5.08317 22.7579 5.1132 22.4684C5.24358 21.1931 5.27746 19.207 4.48407 17.756ZM3.52031 9.63423C3.49028 8.23034 3.74046 7.21503 4.2461 6.69895C4.56789 6.36945 4.94764 6.30089 5.20809 6.30089C5.34571 6.30089 5.44478 6.32 5.45152 6.32L18.2343 10.4874L24.6118 12.5666L24.4025 19.0359L6.51115 14.02L5.56698 13.7555C5.53229 13.7457 5.48524 13.739 5.44895 13.7374C5.37525 13.7321 3.60638 13.5692 3.52031 9.63423ZM22.7684 39.1972L3.9333 33.9166C3.89846 33.9065 3.85189 33.8997 3.8156 33.898C3.74062 33.893 1.97094 33.7303 1.88535 29.7963C1.85485 28.3906 2.1063 27.3763 2.61098 26.8597C2.93358 26.5302 3.31349 26.4617 3.57346 26.4617C3.71139 26.4617 3.81014 26.4801 3.81737 26.4801L22.9763 32.7277L22.7684 39.1972ZM47.4493 32.5483C47.479 32.838 47.5121 33.1012 47.5442 33.3019L23.8095 39.2063L24.017 32.7818L29.0913 31.7386L29.8407 31.9199L32.6494 31.007L45.5966 28.3465L48.0786 27.8358C47.285 29.2866 47.3179 31.2731 47.4493 32.5483ZM48.7567 23.8172C48.7135 23.8181 48.6703 23.8239 48.6296 23.8368L46.8396 24.3379L29.7951 29.1172L29.5866 22.6479L35.1788 20.8239L48.7194 16.408C48.7212 16.4072 49.4317 16.2494 49.9532 16.7797C50.4581 17.2958 50.7086 18.3111 50.679 19.715C50.5907 23.6487 48.821 23.8122 48.7567 23.8172Z" fill="#374375"/>
</svg>
