<svg width="30" height="25" viewBox="0 0 30 25" fill="none" xmlns="http://www.w3.org/2000/svg">
<path d="M14.3856 21.1861V0.706482C10.5285 -0.126171 6.67135 -0.530252 2.81421 1.30036V21.7738C6.67135 19.9432 10.5285 20.3534 14.3856 21.1861Z" fill="#374375"/>
<path d="M27.1937 21.78V1.30037C23.3366 -0.530241 19.4795 -0.126159 15.6223 0.682004V21.1555C19.4795 20.3534 23.3366 19.9432 27.1937 21.78Z" fill="#374375"/>
<path d="M28.4061 3.73096V23.7085C25.5224 22.0861 23.1102 21.7003 21.1693 21.682C19.3448 21.6697 16.1979 22.2146 15.004 22.5391C13.6265 22.1963 10.4918 21.6452 8.83872 21.682C6.81831 21.7248 5.00607 21.9208 1.60199 23.7085V3.73096H0.00402832V24.4922H30.004V3.73096H28.4061Z" fill="#374375"/>
</svg>
