<svg width="174" height="29" viewBox="0 0 174 29" fill="none" xmlns="http://www.w3.org/2000/svg">
<path d="M167.987 28.7129V0H173.371V28.7129H167.987Z" fill="#374375"/>
<path d="M149.116 28.7131L153.28 3.73291H161.535L162.288 8.18341H156.869L156.294 13.8183L155.613 19.3455H158.125L157.299 23.796H155.038L154.428 28.7131H149.116ZM160.386 28.7131L158.484 13.8183L158.161 9.8344H162.432L165.698 28.7131H160.386Z" fill="#374375"/>
<path d="M132.197 28.7131V15.2898H137.688L139.77 9.90618L142.462 3.73291H148.097L137.473 25.447V28.7131H132.197ZM143.144 28.7131L141.062 23.4371L144.184 16.9767L148.42 28.7131H143.144ZM132.197 13.6389V3.73291H137.688L137.616 9.90618L136.755 13.6389H132.197Z" fill="#374375"/>
<path d="M122.91 28.9998V24.7826C123.329 24.6869 123.634 24.5194 123.826 24.2801C124.029 24.0408 124.155 23.7357 124.202 23.3649C124.31 22.6829 124.352 22.1446 124.328 21.7498C124.304 21.343 124.262 20.9243 124.202 20.4936C124.155 20.0749 123.993 19.71 123.718 19.3989C123.455 19.0759 122.982 18.8426 122.3 18.699L119.285 18.053C117.993 17.7778 116.976 17.3651 116.235 16.8147C115.493 16.2525 114.955 15.5705 114.62 14.769C114.297 13.9554 114.117 13.0282 114.081 11.9874C114.069 11.5687 114.063 11.2157 114.063 10.9286C114.063 10.6295 114.069 10.3125 114.081 9.97749C114.177 7.8001 114.709 6.20294 115.678 5.18603C116.647 4.15715 118.28 3.57691 120.577 3.44531V7.66251C120.171 7.77019 119.866 7.9317 119.662 8.14705C119.471 8.36239 119.345 8.62559 119.285 8.93665C119.214 9.43912 119.172 9.94758 119.16 10.462C119.16 10.9645 119.202 11.4969 119.285 12.0592C119.345 12.3583 119.525 12.6693 119.824 12.9923C120.123 13.3034 120.613 13.5307 121.295 13.6743L123.915 14.2126C125.172 14.4639 126.194 14.8467 126.984 15.3612C127.774 15.8756 128.36 16.5515 128.743 17.389C129.137 18.2265 129.371 19.2613 129.443 20.4936C129.455 20.7448 129.461 20.9303 129.461 21.0499C129.472 21.1695 129.472 21.3191 129.461 21.4985C129.449 21.678 129.431 21.989 129.407 22.4317C129.287 24.6211 128.731 26.2302 127.738 27.2591C126.757 28.2879 125.148 28.8682 122.91 28.9998ZM120.542 28.9998C118.448 28.9998 116.869 28.4375 115.804 27.3129C114.751 26.1763 114.225 24.5493 114.225 22.4317C114.225 21.8694 114.225 21.3011 114.225 20.7269C114.237 20.1526 114.285 19.68 114.368 19.3092H119.249C119.202 19.9433 119.166 20.4996 119.142 20.9781C119.13 21.4447 119.13 21.8754 119.142 22.2702C119.166 22.653 119.202 23.0418 119.249 23.4366C119.285 23.7716 119.405 24.0528 119.608 24.2801C119.824 24.4954 120.135 24.6569 120.542 24.7646V28.9998ZM124.238 13.2077C124.274 12.4779 124.292 11.8917 124.292 11.449C124.304 11.0064 124.304 10.6056 124.292 10.2467C124.28 9.88776 124.262 9.47502 124.238 9.00843C124.226 8.67345 124.113 8.3923 123.897 8.16499C123.682 7.93768 123.365 7.77019 122.946 7.66251V3.44531C125.1 3.58888 126.667 4.18108 127.648 5.22192C128.629 6.2508 129.179 7.83599 129.299 9.97749C129.311 10.133 129.311 10.4501 129.299 10.9286C129.299 11.3952 129.287 11.8618 129.263 12.3284C129.251 12.7949 129.239 13.0881 129.227 13.2077H124.238Z" fill="#374375"/>
<path d="M95.7195 3.73291H101.103L103.328 16.0436L103.293 22.6116H99.165L95.7195 3.73291ZM99.4163 24.2626H104.943L105.374 16.0436L107.599 3.73291H112.983L108.64 28.7131H100.206L99.4163 24.2626Z" fill="#374375"/>
<path d="M85.6029 28.9998C83.3656 28.8682 81.7446 28.2879 80.7396 27.2591C79.7347 26.2302 79.2023 24.6211 79.1425 22.4317C79.1066 21.355 79.0826 20.2543 79.0707 19.1297C79.0587 18.0051 79.0527 16.8985 79.0527 15.8098C79.0527 14.7091 79.0587 13.6623 79.0707 12.6693C79.0946 11.6763 79.1185 10.7791 79.1425 9.97749C79.2023 7.8001 79.7347 6.20294 80.7396 5.18603C81.7446 4.15715 83.3656 3.57691 85.6029 3.44531V7.66251C85.1961 7.77019 84.885 7.93768 84.6697 8.16499C84.4663 8.3923 84.3586 8.67345 84.3467 9.00843C84.2749 10.48 84.2211 11.8378 84.1852 13.0821C84.1612 14.3263 84.1493 15.5107 84.1493 16.6353C84.1612 17.7479 84.1852 18.8605 84.2211 19.9732C84.2569 21.0738 84.2988 22.2283 84.3467 23.4366C84.3586 23.7716 84.4663 24.0528 84.6697 24.2801C84.885 24.5074 85.1961 24.6749 85.6029 24.7826V28.9998ZM87.9717 28.9998V24.7826C88.3784 24.6749 88.6835 24.5074 88.8869 24.2801C89.1022 24.0528 89.2159 23.7716 89.2279 23.4366C89.2996 21.8933 89.3475 20.4876 89.3714 19.2194C89.3953 17.9513 89.4013 16.7609 89.3894 15.6483C89.3894 14.5237 89.3714 13.429 89.3355 12.3642C89.3116 11.2875 89.2757 10.1809 89.2279 9.04432C89.2159 8.69738 89.1082 8.41025 88.9048 8.18294C88.7015 7.94366 88.3904 7.77019 87.9717 7.66251V3.44531C90.2208 3.57691 91.8359 4.15715 92.817 5.18603C93.81 6.21491 94.3483 7.82403 94.4321 10.0134C94.468 10.8269 94.4919 11.6584 94.5038 12.5078C94.5278 13.3572 94.5397 14.2067 94.5397 15.0561C94.5517 15.9055 94.5517 16.7489 94.5397 17.5864C94.5397 18.4239 94.5278 19.2494 94.5038 20.0629C94.4799 20.8645 94.456 21.6421 94.4321 22.3958C94.3483 24.5971 93.81 26.2182 92.817 27.2591C91.8359 28.2879 90.2208 28.8682 87.9717 28.9998Z" fill="#374375"/>
<path d="M64.7258 28.7131V3.73291H69.93V28.7131H64.7258ZM72.2988 28.7131V24.2626H77.4672V28.7131H72.2988Z" fill="#374375"/>
<path d="M52.9014 28.9998C50.6642 28.8682 49.0431 28.2879 48.0382 27.2591C47.0332 26.2302 46.5009 24.6211 46.441 22.4317C46.4052 21.355 46.3812 20.2543 46.3693 19.1297C46.3573 18.0051 46.3513 16.8985 46.3513 15.8098C46.3513 14.7091 46.3573 13.6623 46.3693 12.6693C46.3932 11.6763 46.4171 10.7791 46.441 9.97749C46.5009 7.8001 47.0332 6.20294 48.0382 5.18603C49.0431 4.15715 50.6642 3.57691 52.9014 3.44531V7.66251C52.4947 7.77019 52.1836 7.93768 51.9683 8.16499C51.7649 8.3923 51.6572 8.67345 51.6453 9.00843C51.5735 10.48 51.5196 11.8378 51.4837 13.0821C51.4598 14.3263 51.4479 15.5107 51.4479 16.6353C51.4598 17.7479 51.4837 18.8605 51.5196 19.9732C51.5555 21.0738 51.5974 22.2283 51.6453 23.4366C51.6572 23.7716 51.7649 24.0528 51.9683 24.2801C52.1836 24.5074 52.4947 24.6749 52.9014 24.7826V28.9998ZM55.2703 28.9998V24.7826C55.677 24.6749 55.9821 24.5074 56.1855 24.2801C56.4008 24.0528 56.5145 23.7716 56.5264 23.4366C56.5982 21.8933 56.6461 20.4876 56.67 19.2194C56.6939 17.9513 56.6999 16.7609 56.688 15.6483C56.688 14.5237 56.67 13.429 56.6341 12.3642C56.6102 11.2875 56.5743 10.1809 56.5264 9.04432C56.5145 8.69738 56.4068 8.41025 56.2034 8.18294C56 7.94366 55.689 7.77019 55.2703 7.66251V3.44531C57.5194 3.57691 59.1345 4.15715 60.1155 5.18603C61.1085 6.21491 61.6469 7.82403 61.7306 10.0134C61.7665 10.8269 61.7905 11.6584 61.8024 12.5078C61.8264 13.3572 61.8383 14.2067 61.8383 15.0561C61.8503 15.9055 61.8503 16.7489 61.8383 17.5864C61.8383 18.4239 61.8264 19.2494 61.8024 20.0629C61.7785 20.8645 61.7546 21.6421 61.7306 22.3958C61.6469 24.5971 61.1085 26.2182 60.1155 27.2591C59.1345 28.2879 57.5194 28.8682 55.2703 28.9998Z" fill="#374375"/>
<path d="M29.5007 28.7131V15.2898H34.9921L37.0738 9.90618L39.7656 3.73291H45.4005L34.7767 25.447V28.7131H29.5007ZM40.4475 28.7131L38.3658 23.4371L41.4884 16.9767L45.7235 28.7131H40.4475ZM29.5007 13.6389V3.73291H34.9921L34.9203 9.90618L34.0589 13.6389H29.5007Z" fill="#374375"/>
<path d="M20.8784 28.7131V3.73291H26.2621V28.7131H20.8784Z" fill="#374375"/>
<path d="M9.65733 28.7131L7.39619 20.6376L5.63753 8.14752H0.899902V3.73291H8.5447L10.7341 11.7007L13.0311 24.2626H17.661V28.7131H9.65733ZM0.899902 28.7131V9.79851H4.41723L5.45807 19.0943L5.88876 28.7131H0.899902ZM17.661 22.6116H14.1437L13.067 14.7156L12.6722 3.73291H17.661V22.6116Z" fill="#374375"/>
</svg>
